<svg width="68" height="68" viewBox="0 0 68 68" fill="none" xmlns="http://www.w3.org/2000/svg">
<path d="M18.2384 22.447C20.5629 22.447 22.4473 20.5627 22.4473 18.2382C22.4473 15.9137 20.5629 14.0293 18.2384 14.0293C15.9139 14.0293 14.0295 15.9137 14.0295 18.2382C14.0295 20.5627 15.9139 22.447 18.2384 22.447Z" fill="white"/>
<path d="M14.0295 28.0588C14.0295 26.5092 15.2858 25.2529 16.8354 25.2529H19.6414C21.191 25.2529 22.4473 26.5092 22.4473 28.0588V50.5061C22.4473 52.0558 21.191 53.312 19.6414 53.312H16.8354C15.2858 53.312 14.0295 52.0558 14.0295 50.5061V28.0588Z" fill="white"/>
<path d="M30.865 53.312H33.6709C35.2206 53.312 36.4768 52.0558 36.4768 50.5061V37.8795C36.4768 33.6707 44.8945 30.8647 44.8945 36.4766V50.5072C44.8945 52.0569 46.1507 53.312 47.7004 53.312H50.5063C52.056 53.312 53.3122 52.0558 53.3122 50.5061V33.6707C53.3122 28.0588 49.1034 25.2529 43.4916 25.2529C37.8798 25.2529 36.4768 29.4618 36.4768 29.4618V28.0588C36.4768 26.5092 35.2206 25.2529 33.6709 25.2529H30.865C29.3153 25.2529 28.0591 26.5092 28.0591 28.0588V50.5061C28.0591 52.0558 29.3153 53.312 30.865 53.312Z" fill="white"/>
<path fill-rule="evenodd" clip-rule="evenodd" d="M56.1181 2.80615C60.7673 2.80615 64.5359 6.57491 64.5359 11.2239V56.1184C64.5359 60.7675 60.7673 64.5361 56.1181 64.5361H11.2236C6.57466 64.5361 2.80591 60.7675 2.80591 56.1184V11.2239C2.80591 6.57491 6.57466 2.80615 11.2236 2.80615H56.1181ZM56.1181 8.41797C57.6678 8.41797 58.9241 9.67423 58.9241 11.2239V56.1184C58.9241 57.6681 57.6678 58.9243 56.1181 58.9243H11.2236C9.67398 58.9243 8.41772 57.6681 8.41772 56.1184V11.2239C8.41772 9.67423 9.67398 8.41797 11.2236 8.41797H56.1181Z" fill="white"/>
</svg>
