<svg width="68" height="68" viewBox="0 0 68 68" fill="none" xmlns="http://www.w3.org/2000/svg">
<path fill-rule="evenodd" clip-rule="evenodd" d="M64.8493 12.6109C65.7413 8.26239 61.4701 4.64869 57.3294 6.24853L6.57282 25.859C1.94873 27.6456 1.74269 34.1117 6.24363 36.189L17.297 41.2907L22.5552 59.6943C22.8284 60.6503 23.5869 61.3905 24.5493 61.6399C25.5117 61.8891 26.5343 61.6108 27.2373 60.9076L35.337 52.8078L46.6833 61.3175C49.9768 63.7876 54.7205 61.9884 55.5477 57.9555L64.8493 12.6109ZM8.59532 31.0937L59.3519 11.4832L50.0504 56.8281L36.7574 46.8581C35.6403 46.0203 34.0772 46.1314 33.0898 47.1188L29.6205 50.588L30.6629 44.8553L51.0874 24.4309C52.0815 23.4369 52.1865 21.8608 51.3332 20.7436C50.4799 19.6265 48.9319 19.3132 47.7113 20.0106L19.5045 36.1286L8.59532 31.0937ZM22.9437 40.6268L24.6452 46.582L25.2984 42.9891C25.4005 42.4276 25.6714 41.9105 26.075 41.507L32.3038 35.2784L22.9437 40.6268Z" fill="white"/>
</svg>
