<svg width="65" height="65" viewBox="0 0 65 65" fill="none" xmlns="http://www.w3.org/2000/svg">
<path d="M21.4599 51.6311C21.4599 51.9117 21.1794 52.1121 20.7785 52.1121C20.3777 52.1121 20.057 52.1121 20.057 51.6311C20.057 51.1501 20.3777 51.1501 20.7384 51.1501C21.0992 51.1501 21.4599 51.3505 21.4599 51.6311ZM17.4515 51.0299C17.4515 51.3104 17.4515 51.6311 18.0127 51.7113C18.1562 51.7802 18.3213 51.7895 18.4715 51.7369C18.6218 51.6844 18.7451 51.5742 18.8144 51.4307C18.8144 51.1501 18.8144 50.8695 18.2532 50.7493C17.692 50.629 17.5317 50.7493 17.4515 51.0299ZM23.1435 50.8294C22.7827 50.8294 22.5422 51.1501 22.5823 51.4708C22.6224 51.7915 22.9431 51.9117 23.3439 51.8315C23.7448 51.7514 23.9452 51.4708 23.9051 51.1902C23.865 50.9096 23.5443 50.7894 23.1435 50.8294ZM31.6813 0.00251999C27.454 -0.0372838 23.2621 0.777391 19.3573 2.39764C15.4525 4.01789 11.9152 6.41033 8.95778 9.43137C6.0004 12.4524 3.6838 16.0398 2.14704 19.9782C0.610289 23.9167 -0.114998 28.1248 0.0147952 32.3505C-0.0971204 39.2727 1.9558 46.057 5.88676 51.7558C9.81771 57.4546 15.4304 61.7833 21.941 64.1375C23.5844 64.418 24.1856 63.3758 24.1856 62.5341C24.1856 61.6923 24.1856 57.1628 24.1856 54.5172C24.1856 54.5172 15.1266 56.5214 13.2026 50.5088C13.2026 50.5088 11.7595 46.5003 9.63505 45.6586C9.63505 45.6586 6.6688 43.5742 9.83547 43.6142C10.8726 43.7541 11.8625 44.1353 12.7258 44.727C13.589 45.3186 14.3014 46.1047 14.8059 47.0214C15.2253 47.8435 15.8083 48.5715 16.5191 49.1599C17.2298 49.7488 18.0534 50.1861 18.9392 50.445C19.8251 50.704 20.7545 50.7793 21.6705 50.6663C22.5864 50.5532 23.4696 50.2538 24.2657 49.7872C24.4177 48.1137 25.1392 46.5432 26.31 45.3379C19.095 44.4961 11.7996 43.4539 11.7996 30.667C11.723 29.2223 11.9551 27.7781 12.4803 26.4305C13.0056 25.0828 13.8121 23.8623 14.846 22.8506C13.8705 19.9163 13.9844 16.7289 15.1667 13.8717C17.8924 12.9899 24.1054 17.4392 24.1054 17.4392C29.4134 15.9422 35.032 15.9422 40.3396 17.4392C40.3396 17.4392 46.5527 12.9899 49.2784 13.8717C50.4865 16.7233 50.6004 19.9201 49.5991 22.8506C50.6697 23.8484 51.5187 25.0596 52.0919 26.406C52.6647 27.7525 52.9489 29.2039 52.9261 30.667C52.9261 43.494 45.31 44.4961 38.0948 45.3379C38.82 46.1512 39.3719 47.104 39.7167 48.1378C40.061 49.1715 40.1913 50.2646 40.0991 51.3505C40.0991 55.84 40.0991 61.3716 40.0991 62.4539C40.0967 62.7245 40.1592 62.9918 40.2818 63.2331C40.4049 63.4745 40.5837 63.6829 40.8042 63.84C41.0242 63.9976 41.2796 64.0994 41.5473 64.1371C41.8155 64.1751 42.0889 64.1475 42.3438 64.0573C48.8427 61.7236 54.4437 57.4073 58.3563 51.7181C62.2693 46.0289 64.2956 39.2539 64.1497 32.3505C64.1874 28.0819 63.3725 23.8487 61.7527 19.8992C60.1328 15.9496 57.7406 12.3632 54.7166 9.35032C51.6927 6.33741 48.0971 3.95861 44.1416 2.35343C40.1861 0.74825 35.9499 -0.0509927 31.6813 0.00251999ZM12.6013 45.7387C12.6013 45.7387 12.6013 46.1796 12.6013 46.4202C12.646 46.465 12.6991 46.5007 12.7575 46.5248C12.816 46.5492 12.8787 46.5616 12.942 46.5616C13.0053 46.5616 13.068 46.5492 13.1265 46.5248C13.1849 46.5007 13.238 46.465 13.2827 46.4202C13.2827 46.4202 13.2827 45.9792 13.2827 45.6986C13.2827 45.418 12.7616 45.5784 12.6013 45.7387ZM11.1983 44.6564C11.1983 44.6564 11.1983 45.0573 11.4789 45.1775C11.5127 45.2196 11.5555 45.2533 11.604 45.2765C11.6526 45.2994 11.7057 45.3118 11.7595 45.3118C11.8133 45.3118 11.8664 45.2994 11.915 45.2765C11.9636 45.2533 12.0063 45.2196 12.0401 45.1775C12.0401 45.1775 12.0401 44.7767 11.7595 44.6564C11.4789 44.5362 11.2785 44.5362 11.1983 44.6564ZM15.2068 49.3864C15.2068 49.3864 15.2068 49.9476 15.2068 50.2282C15.2068 50.5088 15.8882 50.5488 16.0485 50.2282C16.2089 49.9075 16.0485 49.667 16.0485 49.3864C16.0485 49.1058 15.5275 49.186 15.3671 49.3864H15.2068ZM13.7237 47.4223C13.7237 47.4223 13.7237 47.9033 13.7237 48.224C13.7237 48.5446 14.2848 48.6649 14.4853 48.5446C14.5868 48.428 14.6427 48.2785 14.6427 48.1237C14.6427 47.969 14.5868 47.8195 14.4853 47.7029C14.2848 47.3822 13.9642 47.2619 13.7237 47.4223Z" fill="white"/>
</svg>
