<svg width="68" height="68" viewBox="0 0 68 68" fill="none" xmlns="http://www.w3.org/2000/svg">
<path d="M33.6709 5.72412C18.2384 5.72412 5.61182 18.3226 5.61182 33.8394C5.61182 47.8689 15.8814 59.5134 29.2937 61.6178V41.9765H22.1667V33.8394H29.2937V27.6383C29.2937 20.5954 33.4745 16.7233 39.9 16.7233C42.9584 16.7233 46.1572 17.2564 46.1572 17.2564V24.187H42.6217C39.1424 24.187 38.0481 26.3475 38.0481 28.5643V33.8394H45.8485L44.5859 41.9765H38.0481V61.6178C44.66 60.5735 50.6809 57.1999 55.0236 52.1058C59.3663 47.012 61.7451 40.5331 61.73 33.8394C61.73 18.3226 49.1034 5.72412 33.6709 5.72412Z" fill="white"/>
</svg>
